<svg class="animated" id="freepik_stories-mobile-ui-ux" xmlns="http://www.w3.org/2000/svg" viewBox="0 0 750 500" version="1.1" xmlns:xlink="http://www.w3.org/1999/xlink" xmlns:svgjs="http://svgjs.com/svgjs"><style>svg#freepik_stories-mobile-ui-ux:not(.animated) .animable {opacity: 0;}svg#freepik_stories-mobile-ui-ux.animated #el1iwyo2do4apj {animation: 3.6s 1 forwards ease-out slideUp;animation-delay: 0s;}svg#freepik_stories-mobile-ui-ux.animated #ellc8zus62lwb {animation: 3.6s 1 forwards ease-out slideUp;animation-delay: 0.10588235294117647s;opacity: 0}svg#freepik_stories-mobile-ui-ux.animated #el5lzy7obk4a8 {animation: 3.6s 1 forwards ease-out slideUp;animation-delay: 0.21176470588235294s;opacity: 0}svg#freepik_stories-mobile-ui-ux.animated #elwozwx45badb {animation: 3.6s 1 forwards ease-out slideUp;animation-delay: 0.3176470588235294s;opacity: 0}svg#freepik_stories-mobile-ui-ux.animated #elisxgjm84zp {animation: 3.6s 1 forwards ease-out slideUp;animation-delay: 0.4235294117647059s;opacity: 0}svg#freepik_stories-mobile-ui-ux.animated #ellge20lohmvs {animation: 3.6s 1 forwards ease-out slideUp;animation-delay: 0.5294117647058824s;opacity: 0}svg#freepik_stories-mobile-ui-ux.animated #elw9q84iqas47 {animation: 3.6s 1 forwards ease-out slideUp;animation-delay: 0.6352941176470588s;opacity: 0}svg#freepik_stories-mobile-ui-ux.animated #eluifhxp2yrpk {animation: 3.6s 1 forwards ease-out slideUp;animation-delay: 0.7411764705882353s;opacity: 0}svg#freepik_stories-mobile-ui-ux.animated #eld9nna68p4t8 {animation: 3.6s 1 forwards ease-out slideUp;animation-delay: 0.8470588235294118s;opacity: 0}svg#freepik_stories-mobile-ui-ux.animated #elpdv9gspgljo {animation: 3.6s 1 forwards ease-out slideUp;animation-delay: 0.9529411764705882s;opacity: 0}svg#freepik_stories-mobile-ui-ux.animated #elpgtj0m0p1pn {animation: 3.6s 1 forwards ease-out slideUp;animation-delay: 1.0588235294117647s;opacity: 0}svg#freepik_stories-mobile-ui-ux.animated #el4suzpbtomzg {animation: 3.6s 1 forwards ease-out slideUp;animation-delay: 1.1647058823529413s;opacity: 0}svg#freepik_stories-mobile-ui-ux.animated #el38qxjy87ogx {animation: 3.6s 1 forwards ease-out slideUp;animation-delay: 1.2705882352941176s;opacity: 0}svg#freepik_stories-mobile-ui-ux.animated #elghyjuw9j4as {animation: 3.6s 1 forwards ease-out slideUp;animation-delay: 1.3764705882352941s;opacity: 0}svg#freepik_stories-mobile-ui-ux.animated #el3w9rxmo49nl {animation: 3.6s 1 forwards ease-out slideUp;animation-delay: 1.4823529411764707s;opacity: 0}svg#freepik_stories-mobile-ui-ux.animated #elgg1zuemjww {animation: 3.6s 1 forwards ease-out slideUp;animation-delay: 1.588235294117647s;opacity: 0}svg#freepik_stories-mobile-ui-ux.animated #elbhu2d3hb9x {animation: 3.6s 1 forwards ease-out slideUp;animation-delay: 1.6941176470588235s;opacity: 0}svg#freepik_stories-mobile-ui-ux.animated #elb7157fl4oad {animation: 3.6s 1 forwards ease-out slideUp;animation-delay: 1.8s;opacity: 0}svg#freepik_stories-mobile-ui-ux.animated #elk2uqq99oxt {animation: 3.6s 1 forwards ease-out slideUp;animation-delay: 1.9058823529411764s;opacity: 0}svg#freepik_stories-mobile-ui-ux.animated #eltys5ava9ype {animation: 3.6s 1 forwards ease-out slideUp;animation-delay: 2.011764705882353s;opacity: 0}svg#freepik_stories-mobile-ui-ux.animated #elgriiepz9rh {animation: 3.6s 1 forwards ease-out slideUp;animation-delay: 2.1176470588235294s;opacity: 0}svg#freepik_stories-mobile-ui-ux.animated #eld289y3v4s6e {animation: 3.6s 1 forwards ease-out slideUp;animation-delay: 2.223529411764706s;opacity: 0}svg#freepik_stories-mobile-ui-ux.animated #elqqkj4t1z7y {animation: 3.6s 1 forwards ease-out slideUp;animation-delay: 2.3294117647058825s;opacity: 0}svg#freepik_stories-mobile-ui-ux.animated #ele431dwzmmop {animation: 3.6s 1 forwards ease-out slideUp;animation-delay: 2.4352941176470586s;opacity: 0}svg#freepik_stories-mobile-ui-ux.animated #elln9jbr2dq2 {animation: 3.6s 1 forwards ease-out slideUp;animation-delay: 2.541176470588235s;opacity: 0}svg#freepik_stories-mobile-ui-ux.animated #elzpfoyi604rh {animation: 3.6s 1 forwards ease-out slideUp;animation-delay: 2.6470588235294117s;opacity: 0}svg#freepik_stories-mobile-ui-ux.animated #elv9y4rxoxcr {animation: 3.6s 1 forwards ease-out slideUp;animation-delay: 2.7529411764705882s;opacity: 0}svg#freepik_stories-mobile-ui-ux.animated #el0x6vqu25jhxb {animation: 3.6s 1 forwards ease-out slideUp;animation-delay: 2.8588235294117648s;opacity: 0}svg#freepik_stories-mobile-ui-ux.animated #elyxhrjey3ue {animation: 3.6s 1 forwards ease-out slideUp;animation-delay: 2.9647058823529413s;opacity: 0}svg#freepik_stories-mobile-ui-ux.animated #elbyn4m76r05k {animation: 3.6s 1 forwards ease-out slideUp;animation-delay: 3.0705882352941174s;opacity: 0}svg#freepik_stories-mobile-ui-ux.animated #el8hzwljgn2uu {animation: 3.6s 1 forwards ease-out slideUp;animation-delay: 3.176470588235294s;opacity: 0}svg#freepik_stories-mobile-ui-ux.animated #elcdcqmvds9ic {animation: 3.6s 1 forwards ease-out slideUp;animation-delay: 3.2823529411764705s;opacity: 0}svg#freepik_stories-mobile-ui-ux.animated #el7gmhxi08cu8 {animation: 3.6s 1 forwards ease-out slideUp;animation-delay: 3.388235294117647s;opacity: 0}svg#freepik_stories-mobile-ui-ux.animated #elwwkyn9gu2bg {animation: 3.6s 1 forwards ease-out slideUp;animation-delay: 3.4941176470588236s;opacity: 0}svg#freepik_stories-mobile-ui-ux.animated #freepik--Character--inject-6 {animation: 3.6s 1 forwards ease-out slideUp;animation-delay: 0s;}            @keyframes slideUp {                0% {                    opacity: 0;                    transform: translateY(30px);                }                100% {                    opacity: 1;                    transform: inherit;                }            }        </style><g id="freepik--background-simple--inject-6" class="animable" style="transform-origin: 373.065px 245.305px;"><path d="M735.73,201C739,116.6,681.68,42.39,600.19,26c-48.72-9.78-108.5-17.37-160.27-11-109.76,13.4-44.78,17.86-34.24,18.76s52.68,11.61-.88,15.18S299.43,27.47,227.43,20.33,66.74,23.9,35.13,94.47,4.4,318.67,24.6,381.2,62.35,333,75.52,352.61s66.74,100.05,203.72,119.7S644.51,456.23,677,427.65s17.56-10.72,23.71,3.57,27.22-26.8,30.73-115.23C733,278.13,734,245.25,735.73,201Z" style="fill: rgb(24, 82, 192); transform-origin: 373.065px 245.305px;" id="elg9v7r3ysl8u" class="animable"></path><g id="el5c2wuwh3ji5"><path d="M735.73,201C739,116.6,681.68,42.39,600.19,26c-48.72-9.78-108.5-17.37-160.27-11-109.76,13.4-44.78,17.86-34.24,18.76s52.68,11.61-.88,15.18S299.43,27.47,227.43,20.33,66.74,23.9,35.13,94.47,4.4,318.67,24.6,381.2,62.35,333,75.52,352.61s66.74,100.05,203.72,119.7S644.51,456.23,677,427.65s17.56-10.72,23.71,3.57,27.22-26.8,30.73-115.23C733,278.13,734,245.25,735.73,201Z" style="fill: rgb(255, 255, 255); opacity: 0.7; transform-origin: 373.065px 245.305px;" class="animable"></path></g></g><g id="freepik--Floor--inject-6" class="animable" style="transform-origin: 379.015px 454.42px;"><line x1="26.63" y1="454.42" x2="731.4" y2="454.42" style="fill: none; stroke: rgb(38, 50, 56); stroke-linecap: round; stroke-linejoin: round; transform-origin: 379.015px 454.42px;" id="el98cm83do0m7" class="animable"></line></g><g id="freepik--Graphics--inject-6" class="animable" style="transform-origin: 375.635px 233.622px;"><g id="elcv6h3bva9kc"><rect x="702.11" y="211.48" width="14.95" height="14.95" style="fill: none; stroke: rgb(156, 156, 156); stroke-linecap: round; stroke-linejoin: round; transform-origin: 709.585px 218.955px; transform: rotate(-45deg);" class="animable"></rect></g><g id="el1wmwjnai2h2"><rect x="49.14" y="79.34" width="14.95" height="14.95" style="fill: none; stroke: rgb(156, 156, 156); stroke-linecap: round; stroke-linejoin: round; transform-origin: 56.615px 86.815px; transform: rotate(-45deg);" class="animable"></rect></g><g id="eluwpksgxzhx7"><rect x="437.43" y="364.71" width="11.46" height="11.46" style="fill: none; stroke: rgb(156, 156, 156); stroke-linecap: round; stroke-linejoin: round; transform-origin: 443.16px 370.44px; transform: rotate(-45deg);" class="animable"></rect></g><g id="elpd3o6m4z7n"><rect x="443.31" y="40.45" width="11.46" height="11.46" style="fill: none; stroke: rgb(156, 156, 156); stroke-linecap: round; stroke-linejoin: round; transform-origin: 449.04px 46.18px; transform: rotate(-45deg);" class="animable"></rect></g><g id="elftoeje1i8z"><rect x="25.32" y="263.51" width="11.46" height="11.46" style="fill: none; stroke: rgb(156, 156, 156); stroke-linecap: round; stroke-linejoin: round; transform-origin: 31.05px 269.24px; transform: rotate(-45deg);" class="animable"></rect></g><g id="el8wtgquseazd"><rect x="33.14" y="65.15" width="11.46" height="11.46" style="fill: none; stroke: rgb(156, 156, 156); stroke-linecap: round; stroke-linejoin: round; transform-origin: 38.87px 70.88px; transform: rotate(-45deg);" class="animable"></rect></g><g id="elds5tw183g4o"><rect x="322.41" y="427.52" width="11.46" height="11.46" style="fill: none; stroke: rgb(156, 156, 156); stroke-linecap: round; stroke-linejoin: round; transform-origin: 328.14px 433.25px; transform: rotate(-45deg);" class="animable"></rect></g><g id="eluo3j73pcjx"><rect x="713.56" y="197.29" width="11.46" height="11.46" style="fill: none; stroke: rgb(156, 156, 156); stroke-linecap: round; stroke-linejoin: round; transform-origin: 719.29px 203.02px; transform: rotate(-45deg);" class="animable"></rect></g><g id="elziahyvj8su"><rect x="714.49" y="379.44" width="11.46" height="11.46" style="fill: none; stroke: rgb(156, 156, 156); stroke-linecap: round; stroke-linejoin: round; transform-origin: 720.22px 385.17px; transform: rotate(-45deg);" class="animable"></rect></g><line x1="716.38" y1="68.45" x2="716.38" y2="85.02" style="fill: none; stroke: rgb(156, 156, 156); stroke-linecap: round; stroke-linejoin: round; transform-origin: 716.38px 76.735px;" id="elnvrcg38wxh" class="animable"></line><line x1="708.1" y1="76.74" x2="724.67" y2="76.74" style="fill: none; stroke: rgb(156, 156, 156); stroke-linecap: round; stroke-linejoin: round; transform-origin: 716.385px 76.74px;" id="elzdw2thz7jq" class="animable"></line><line x1="55.42" y1="117.74" x2="55.42" y2="134.31" style="fill: none; stroke: rgb(156, 156, 156); stroke-linecap: round; stroke-linejoin: round; transform-origin: 55.42px 126.025px;" id="el84n7ng6a5dd" class="animable"></line><line x1="47.13" y1="126.02" x2="63.7" y2="126.02" style="fill: none; stroke: rgb(156, 156, 156); stroke-linecap: round; stroke-linejoin: round; transform-origin: 55.415px 126.02px;" id="elz2ph6jmedd" class="animable"></line><line x1="710.76" y1="313.15" x2="710.76" y2="338.92" style="fill: none; stroke: rgb(156, 156, 156); stroke-linecap: round; stroke-linejoin: round; transform-origin: 710.76px 326.035px;" id="eleonz3ixqntv" class="animable"></line><line x1="697.87" y1="326.03" x2="723.65" y2="326.03" style="fill: none; stroke: rgb(156, 156, 156); stroke-linecap: round; stroke-linejoin: round; transform-origin: 710.76px 326.03px;" id="el8jwwtmabjfi" class="animable"></line><line x1="427.98" y1="304.74" x2="446.21" y2="322.96" style="fill: none; stroke: rgb(156, 156, 156); stroke-linecap: round; stroke-linejoin: round; transform-origin: 437.095px 313.85px;" id="elmvmgpg1paq" class="animable"></line><line x1="427.98" y1="322.96" x2="446.21" y2="304.74" style="fill: none; stroke: rgb(156, 156, 156); stroke-linecap: round; stroke-linejoin: round; transform-origin: 437.095px 313.85px;" id="elv8g3vxqlis" class="animable"></line><line x1="24.04" y1="413.9" x2="37.14" y2="426.99" style="fill: none; stroke: rgb(156, 156, 156); stroke-linecap: round; stroke-linejoin: round; transform-origin: 30.59px 420.445px;" id="el6ukt380hijb" class="animable"></line><line x1="24.04" y1="426.99" x2="37.14" y2="413.9" style="fill: none; stroke: rgb(156, 156, 156); stroke-linecap: round; stroke-linejoin: round; transform-origin: 30.59px 420.445px;" id="elvi7y4tvcyo" class="animable"></line><line x1="338.01" y1="25.89" x2="351.11" y2="38.99" style="fill: none; stroke: rgb(156, 156, 156); stroke-linecap: round; stroke-linejoin: round; transform-origin: 344.56px 32.44px;" id="el6rr1o921ke7" class="animable"></line><line x1="338.01" y1="38.99" x2="351.11" y2="25.89" style="fill: none; stroke: rgb(156, 156, 156); stroke-linecap: round; stroke-linejoin: round; transform-origin: 344.56px 32.44px;" id="el7ceqo889a23" class="animable"></line></g><g id="freepik--Arrow--inject-6" class="animable" style="transform-origin: 395.485px 76.815px;"><polygon points="442.21 76.81 404.52 48.13 404.52 63.22 348.76 63.22 348.76 90.4 404.52 90.4 404.52 105.5 442.21 76.81" style="fill: none; stroke: rgb(38, 50, 56); stroke-linecap: round; stroke-linejoin: round; transform-origin: 395.485px 76.815px;" id="elzj35o8dvhp" class="animable"></polygon></g><g id="freepik--screen-2--inject-6" class="animable" style="transform-origin: 580.745px 245.365px;"><rect x="473.33" y="36.31" width="214.83" height="418.11" rx="11.27" style="fill: rgb(255, 255, 255); stroke: rgb(38, 50, 56); stroke-linecap: round; stroke-linejoin: round; transform-origin: 580.745px 245.365px;" id="elj1b2e8qqkhs" class="animable"></rect><path d="M473.33,418.9v24.24a11.27,11.27,0,0,0,11.27,11.28H676.89a11.28,11.28,0,0,0,11.27-11.28V418.9Z" style="fill: rgb(24, 82, 192); stroke: rgb(38, 50, 56); stroke-miterlimit: 10; transform-origin: 580.745px 436.66px;" id="elva0ag3r9eck" class="animable"></path><rect x="560.21" y="161.45" width="44.63" height="44.63" rx="6.1" style="fill: rgb(38, 50, 56); stroke: rgb(38, 50, 56); stroke-miterlimit: 10; transform-origin: 582.525px 183.765px;" id="ell4y9v81v9kf" class="animable"></rect><polygon points="594.51 184.63 572.83 172.11 572.83 197.15 594.51 184.63" style="fill: rgb(24, 82, 192); stroke: rgb(38, 50, 56); stroke-miterlimit: 10; transform-origin: 583.67px 184.63px;" id="el0flfnkvponin" class="animable"></polygon><path d="M658.68,78.13H617.11a16,16,0,0,1-16-16h0a16,16,0,0,1,16-16h41.57a16,16,0,0,1,16,16h0A16,16,0,0,1,658.68,78.13Z" style="fill: rgb(24, 82, 192); stroke: rgb(38, 50, 56); stroke-miterlimit: 10; transform-origin: 637.895px 62.13px;" id="elpviknpq02ul" class="animable"></path><circle cx="616.63" cy="62.09" r="14.26" style="fill: rgb(255, 255, 255); stroke: rgb(38, 50, 56); stroke-linecap: round; stroke-linejoin: round; transform-origin: 616.63px 62.09px;" id="el7oijwflo63e" class="animable"></circle><line x1="488.52" y1="64.99" x2="516.36" y2="64.99" style="fill: none; stroke: rgb(38, 50, 56); stroke-linecap: round; stroke-linejoin: round; transform-origin: 502.44px 64.99px;" id="elzg8llqwz4n" class="animable"></line><line x1="488.52" y1="72.28" x2="516.36" y2="72.28" style="fill: none; stroke: rgb(38, 50, 56); stroke-linecap: round; stroke-linejoin: round; transform-origin: 502.44px 72.28px;" id="elx86f1olh0q" class="animable"></line><line x1="488.52" y1="79.57" x2="516.36" y2="79.57" style="fill: none; stroke: rgb(38, 50, 56); stroke-linecap: round; stroke-linejoin: round; transform-origin: 502.44px 79.57px;" id="elxls9t6qlkl" class="animable"></line><rect x="492.2" y="285.68" width="151.58" height="115.98" style="fill: rgb(24, 82, 192); stroke: rgb(38, 50, 56); stroke-miterlimit: 10; transform-origin: 567.99px 343.67px;" id="elh1frz5s6wf" class="animable"></rect><polygon points="643.78 331.75 620.63 309.54 578.74 357.26 553.93 338.7 492.2 401.66 643.78 401.66 643.78 331.75" style="fill: rgb(38, 50, 56); stroke: rgb(38, 50, 56); stroke-miterlimit: 10; transform-origin: 567.99px 355.6px;" id="el4esltkd2xig" class="animable"></polygon><circle cx="526" cy="318.82" r="15.91" style="fill: rgb(38, 50, 56); stroke: rgb(38, 50, 56); stroke-miterlimit: 10; transform-origin: 526px 318.82px;" id="elpjl9cutkm6l" class="animable"></circle><line x1="487.15" y1="91.69" x2="672.83" y2="91.69" style="fill: none; stroke: rgb(38, 50, 56); stroke-linecap: round; stroke-linejoin: round; transform-origin: 579.99px 91.69px;" id="el0e20vlobl7cu" class="animable"></line><g id="ellz0k30gldl"><circle cx="665.6" cy="298.82" r="12.9" style="fill: rgb(38, 50, 56); stroke: rgb(38, 50, 56); stroke-linecap: round; stroke-linejoin: round; transform-origin: 665.6px 298.82px; transform: rotate(-13.21deg);" class="animable"></circle></g><path d="M670.57,294.46a5,5,0,1,0-5,5A5,5,0,0,0,670.57,294.46Z" style="fill: rgb(255, 255, 255); stroke: rgb(38, 50, 56); stroke-linecap: round; stroke-linejoin: round; transform-origin: 665.57px 294.46px;" id="el5mndczxactw" class="animable"></path><path d="M665.6,300.38a8.21,8.21,0,0,0-8.22,8.21c0,.06,0,.12,0,.19a12.92,12.92,0,0,0,16.41,0c0-.07,0-.13,0-.19A8.21,8.21,0,0,0,665.6,300.38Z" style="fill: rgb(255, 255, 255); stroke: rgb(38, 50, 56); stroke-linecap: round; stroke-linejoin: round; transform-origin: 665.585px 306.05px;" id="el6iy3js6sw9r" class="animable"></path><g id="el4hzvtckfcuc"><circle cx="665.6" cy="341.21" r="12.9" style="fill: rgb(38, 50, 56); stroke: rgb(38, 50, 56); stroke-linecap: round; stroke-linejoin: round; transform-origin: 665.6px 341.21px; transform: rotate(-13.21deg);" class="animable"></circle></g><path d="M670.57,336.85a5,5,0,1,0-5,5A5,5,0,0,0,670.57,336.85Z" style="fill: rgb(255, 255, 255); stroke: rgb(38, 50, 56); stroke-linecap: round; stroke-linejoin: round; transform-origin: 665.57px 336.85px;" id="elfmk66msreae" class="animable"></path><path d="M665.6,342.77a8.22,8.22,0,0,0-8.22,8.21c0,.06,0,.12,0,.19a12.92,12.92,0,0,0,16.41,0c0-.07,0-.13,0-.19A8.22,8.22,0,0,0,665.6,342.77Z" style="fill: rgb(255, 255, 255); stroke: rgb(38, 50, 56); stroke-linecap: round; stroke-linejoin: round; transform-origin: 665.585px 348.44px;" id="elb1731jdd98u" class="animable"></path><g id="elpntkaknyzxi"><circle cx="665.6" cy="383.6" r="12.9" style="fill: rgb(38, 50, 56); stroke: rgb(38, 50, 56); stroke-linecap: round; stroke-linejoin: round; transform-origin: 665.6px 383.6px; transform: rotate(-13.21deg);" class="animable"></circle></g><path d="M670.57,379.24a5,5,0,1,0-5,5A5,5,0,0,0,670.57,379.24Z" style="fill: rgb(255, 255, 255); stroke: rgb(38, 50, 56); stroke-linecap: round; stroke-linejoin: round; transform-origin: 665.57px 379.24px;" id="elng5azkn8j3q" class="animable"></path><path d="M665.6,385.16a8.22,8.22,0,0,0-8.22,8.21c0,.06,0,.13,0,.19a12.92,12.92,0,0,0,16.41,0c0-.06,0-.13,0-.19A8.22,8.22,0,0,0,665.6,385.16Z" style="fill: rgb(255, 255, 255); stroke: rgb(38, 50, 56); stroke-linecap: round; stroke-linejoin: round; transform-origin: 665.585px 390.83px;" id="elltqi1in0e6" class="animable"></path><rect x="489.57" y="106.74" width="183.28" height="35.84" rx="17.92" style="fill: rgb(163, 163, 163); stroke: rgb(38, 50, 56); stroke-miterlimit: 10; transform-origin: 581.21px 124.66px;" id="elcm5fbn09o1" class="animable"></rect><rect x="489.57" y="106.74" width="101.58" height="35.84" rx="17.92" style="fill: rgb(24, 82, 192); stroke: rgb(38, 50, 56); stroke-miterlimit: 10; transform-origin: 540.36px 124.66px;" id="el746j96zg6wg" class="animable"></rect><rect x="492.2" y="161.45" width="44.63" height="44.63" rx="6.1" style="fill: rgb(24, 82, 192); stroke: rgb(38, 50, 56); stroke-miterlimit: 10; transform-origin: 514.515px 183.765px;" id="elund9kbyuyz" class="animable"></rect><path d="M533,187.59V181l-5.58-.3a13.16,13.16,0,0,0-1.11-3l3.75-4.16-4.64-4.64-4,3.59a13.5,13.5,0,0,0-3.09-1.34L518,165.7h-6.56l-.29,5.46a12.92,12.92,0,0,0-3,1.27L504,168.64l-4.64,4.64,3.91,4.34a12.72,12.72,0,0,0-1.06,2.71l-6.06.32v6.56l6.23.33a12.19,12.19,0,0,0,1,2.37l-4.3,4.78,4.64,4.65,4.78-4.31a13.53,13.53,0,0,0,2.24,1l.35,6.55h6.56l.33-6.33a12.38,12.38,0,0,0,2.41-.88l4.74,4.26,4.64-4.64-4-4.45a13.22,13.22,0,0,0,1.24-2.6Zm-18.23,3.17a7.12,7.12,0,1,1,7.11-7.11A7.12,7.12,0,0,1,514.72,190.76Z" style="fill: rgb(38, 50, 56); stroke: rgb(38, 50, 56); stroke-miterlimit: 10; transform-origin: 514.575px 184.14px;" id="elmm8dg24n7i" class="animable"></path><rect x="628.22" y="161.45" width="44.63" height="44.63" rx="6.1" style="fill: rgb(24, 82, 192); stroke: rgb(38, 50, 56); stroke-miterlimit: 10; transform-origin: 650.535px 183.765px;" id="elh7517t58crh" class="animable"></rect><g id="elqjgubbann49"><circle cx="650.53" cy="183.76" r="15.65" style="fill: rgb(38, 50, 56); stroke: rgb(38, 50, 56); stroke-miterlimit: 10; transform-origin: 650.53px 183.76px; transform: rotate(-67.72deg);" class="animable"></circle></g><rect x="642.59" y="175.82" width="15.89" height="15.89" style="fill: rgb(255, 255, 255); stroke: rgb(38, 50, 56); stroke-linecap: round; stroke-linejoin: round; transform-origin: 650.535px 183.765px;" id="elm3j9bsu1q2h" class="animable"></rect><rect x="560.21" y="220.29" width="44.63" height="44.63" rx="6.1" style="fill: rgb(255, 255, 255); stroke: rgb(38, 50, 56); stroke-linecap: round; stroke-linejoin: round; transform-origin: 582.525px 242.605px;" id="elxa38fx5swn9" class="animable"></rect><rect x="567.63" y="232.43" width="30.14" height="21.05" style="fill: rgb(24, 82, 192); stroke: rgb(38, 50, 56); stroke-linecap: round; stroke-linejoin: round; transform-origin: 582.7px 242.955px;" id="elnsxv6mewwte" class="animable"></rect><polygon points="567.63 232.43 582.7 242.96 597.77 232.43 567.63 232.43" style="fill: rgb(24, 82, 192); stroke: rgb(38, 50, 56); stroke-linecap: round; stroke-linejoin: round; transform-origin: 582.7px 237.695px;" id="elgabzp9y324" class="animable"></polygon><rect x="492.2" y="220.29" width="44.63" height="44.63" rx="6.1" style="fill: rgb(24, 82, 192); stroke: rgb(38, 50, 56); stroke-miterlimit: 10; transform-origin: 514.515px 242.605px;" id="elmmvwu6eoc5" class="animable"></rect><path d="M525,236.17a15.19,15.19,0,0,0-1.32-3.42c-.65-1.11-1.07-1.4-3.33-1.4h-4.11v20c0,3.21.33,3.66,4.24,3.91v1.15h-12V255.3c3.83-.25,4.16-.66,4.16-3.91v-20H509c-2.27,0-2.92.25-3.62,1.49a17.91,17.91,0,0,0-1.36,3.33h-1.23c.24-2.51.49-5.1.61-7.41h.95c.62,1,1.07,1,2.22,1h16.29a2.06,2.06,0,0,0,2.1-1h1c0,1.94.17,4.9.37,7.28Z" style="fill: rgb(38, 50, 56); transform-origin: 514.56px 242.605px;" id="elrdthevq7j4s" class="animable"></path><rect x="628.22" y="220.29" width="44.63" height="44.63" rx="6.1" style="fill: rgb(38, 50, 56); stroke: rgb(38, 50, 56); stroke-miterlimit: 10; transform-origin: 650.535px 242.605px;" id="elslm4qz4bcbj" class="animable"></rect><circle cx="650.53" cy="242.61" r="15.63" style="fill: none; stroke: rgb(24, 82, 192); stroke-miterlimit: 10; transform-origin: 650.53px 242.61px;" id="elk29e1z9z91c" class="animable"></circle><ellipse cx="650.53" cy="242.61" rx="6.92" ry="15.63" style="fill: none; stroke: rgb(24, 82, 192); stroke-miterlimit: 10; transform-origin: 650.53px 242.61px;" id="el5boqvbi3058" class="animable"></ellipse><line x1="640.43" y1="230.74" x2="660.86" y2="230.74" style="fill: none; stroke: rgb(24, 82, 192); stroke-miterlimit: 10; transform-origin: 650.645px 230.74px;" id="elu7u67zq3f9a" class="animable"></line><line x1="635.74" y1="236.83" x2="665.56" y2="236.83" style="fill: none; stroke: rgb(24, 82, 192); stroke-miterlimit: 10; transform-origin: 650.65px 236.83px;" id="el9b14go0xvff" class="animable"></line><line x1="640.43" y1="254.59" x2="660.86" y2="254.59" style="fill: none; stroke: rgb(24, 82, 192); stroke-miterlimit: 10; transform-origin: 650.645px 254.59px;" id="elm6ssfo4d6m" class="animable"></line><line x1="635.74" y1="248.5" x2="665.56" y2="248.5" style="fill: none; stroke: rgb(24, 82, 192); stroke-miterlimit: 10; transform-origin: 650.65px 248.5px;" id="elmpklkfcvyfj" class="animable"></line><line x1="635.23" y1="242.68" x2="666.06" y2="242.68" style="fill: none; stroke: rgb(24, 82, 192); stroke-miterlimit: 10; transform-origin: 650.645px 242.68px;" id="elpp3dxzma0id" class="animable"></line></g><g id="freepik--screen-1--inject-6" class="animable" style="transform-origin: 198.795px 245.365px;"><rect x="89.2" y="36.31" width="214.83" height="418.11" rx="11.27" style="fill: rgb(255, 255, 255); stroke: rgb(38, 50, 56); stroke-linecap: round; stroke-linejoin: round; transform-origin: 196.615px 245.365px;" id="el9cu287hibwf" class="animable"></rect><path d="M89.2,418.9v24.24a11.28,11.28,0,0,0,11.27,11.28H292.76A11.28,11.28,0,0,0,304,443.14V418.9Z" style="fill: rgb(24, 82, 192); stroke: rgb(38, 50, 56); stroke-miterlimit: 10; transform-origin: 196.6px 436.66px;" id="ell0nb37edtl" class="animable"></path><rect x="172.32" y="164.99" width="44.63" height="44.63" style="fill: rgb(38, 50, 56); stroke: rgb(38, 50, 56); stroke-miterlimit: 10; transform-origin: 194.635px 187.305px;" id="eli3s1e3src6e" class="animable"></rect><rect x="59.07" y="164.99" width="44.63" height="44.63" style="fill: rgb(38, 50, 56); stroke: rgb(38, 50, 56); stroke-miterlimit: 10; transform-origin: 81.385px 187.305px;" id="el1mkdmqamros" class="animable"></rect><rect x="172.32" y="223.84" width="44.63" height="44.63" style="fill: rgb(38, 50, 56); stroke: rgb(38, 50, 56); stroke-miterlimit: 10; transform-origin: 194.635px 246.155px;" id="el839mw6cgmus" class="animable"></rect><rect x="234.17" y="223.84" width="44.63" height="44.63" style="fill: rgb(38, 50, 56); stroke: rgb(38, 50, 56); stroke-miterlimit: 10; transform-origin: 256.485px 246.155px;" id="elpicnhi6mztj" class="animable"></rect><rect x="59.07" y="223.84" width="44.63" height="44.63" style="fill: rgb(38, 50, 56); stroke: rgb(38, 50, 56); stroke-miterlimit: 10; transform-origin: 81.385px 246.155px;" id="ellu0wz2kg7ja" class="animable"></rect><rect x="174.35" y="161.45" width="44.63" height="44.63" style="fill: rgb(255, 255, 255); stroke: rgb(38, 50, 56); stroke-linecap: round; stroke-linejoin: round; transform-origin: 196.665px 183.765px;" id="elnj915owor6" class="animable"></rect><rect x="61.09" y="161.45" width="44.63" height="44.63" style="fill: rgb(24, 82, 192); stroke: rgb(38, 50, 56); stroke-miterlimit: 10; transform-origin: 83.405px 183.765px;" id="el0i83w1d3lnj9" class="animable"></rect><rect x="174.35" y="220.29" width="44.63" height="44.63" style="fill: rgb(24, 82, 192); stroke: rgb(38, 50, 56); stroke-miterlimit: 10; transform-origin: 196.665px 242.605px;" id="elbi34vh3db69" class="animable"></rect><rect x="236.19" y="220.29" width="44.63" height="44.63" style="fill: rgb(24, 82, 192); stroke: rgb(38, 50, 56); stroke-miterlimit: 10; transform-origin: 258.505px 242.605px;" id="elyrrno9qj0wc" class="animable"></rect><rect x="61.09" y="220.29" width="44.63" height="44.63" style="fill: rgb(255, 255, 255); stroke: rgb(38, 50, 56); stroke-linecap: round; stroke-linejoin: round; transform-origin: 83.405px 242.605px;" id="elab39md3m0sd" class="animable"></rect><path d="M315.62,49.76H274.05a16,16,0,0,0,0,32.09h41.57a16,16,0,0,0,0-32.09Z" style="fill: rgb(38, 50, 56); stroke: rgb(38, 50, 56); stroke-miterlimit: 10; transform-origin: 294.835px 65.805px;" id="elx6100eqsrnc" class="animable"></path><path d="M318.62,78.13H277.05a16,16,0,0,1-16.05-16h0a16,16,0,0,1,16.05-16h41.57a16,16,0,0,1,16,16h0A16,16,0,0,1,318.62,78.13Z" style="fill: rgb(24, 82, 192); stroke: rgb(38, 50, 56); stroke-miterlimit: 10; transform-origin: 297.81px 62.13px;" id="el4jp0s2p0vgr" class="animable"></path><circle cx="276.56" cy="62.09" r="14.26" style="fill: rgb(255, 255, 255); stroke: rgb(38, 50, 56); stroke-linecap: round; stroke-linejoin: round; transform-origin: 276.56px 62.09px;" id="elp8kbrox8ia" class="animable"></circle><line x1="107.4" y1="64.99" x2="135.24" y2="64.99" style="fill: none; stroke: rgb(38, 50, 56); stroke-linecap: round; stroke-linejoin: round; transform-origin: 121.32px 64.99px;" id="elz2eckeupc9k" class="animable"></line><line x1="107.4" y1="72.28" x2="135.24" y2="72.28" style="fill: none; stroke: rgb(38, 50, 56); stroke-linecap: round; stroke-linejoin: round; transform-origin: 121.32px 72.28px;" id="eldpfxwvlxbf" class="animable"></line><line x1="107.4" y1="79.57" x2="135.24" y2="79.57" style="fill: none; stroke: rgb(38, 50, 56); stroke-linecap: round; stroke-linejoin: round; transform-origin: 121.32px 79.57px;" id="elud66kyy4wol" class="animable"></line><circle cx="276.4" cy="300.26" r="12.59" style="fill: rgb(255, 255, 255); stroke: rgb(38, 50, 56); stroke-linecap: round; stroke-linejoin: round; transform-origin: 276.4px 300.26px;" id="elaqvs43b35ev" class="animable"></circle><g id="el2kvgnwtyesa"><circle cx="276.4" cy="341.35" r="12.59" style="fill: rgb(255, 255, 255); stroke: rgb(38, 50, 56); stroke-linecap: round; stroke-linejoin: round; transform-origin: 276.4px 341.35px; transform: rotate(-80.75deg);" class="animable"></circle></g><circle cx="276.4" cy="382.44" r="12.59" style="fill: rgb(255, 255, 255); stroke: rgb(38, 50, 56); stroke-linecap: round; stroke-linejoin: round; transform-origin: 276.4px 382.44px;" id="el5813jn8ipf" class="animable"></circle><line x1="106.09" y1="91.69" x2="291.78" y2="91.69" style="fill: none; stroke: rgb(38, 50, 56); stroke-linecap: round; stroke-linejoin: round; transform-origin: 198.935px 91.69px;" id="elz5u49pqmi7" class="animable"></line><rect x="49.69" y="290.75" width="151.58" height="115.98" style="fill: rgb(38, 50, 56); stroke: rgb(38, 50, 56); stroke-miterlimit: 10; transform-origin: 125.48px 348.74px;" id="ela2rakmp5hwi" class="animable"></rect><line x1="49.69" y1="406.73" x2="201.28" y2="290.75" style="fill: rgb(38, 50, 56); stroke: rgb(38, 50, 56); stroke-miterlimit: 10; transform-origin: 125.485px 348.74px;" id="elpcp0bi1buv" class="animable"></line><line x1="49.69" y1="290.75" x2="201.28" y2="406.73" style="fill: rgb(38, 50, 56); stroke: rgb(38, 50, 56); stroke-miterlimit: 10; transform-origin: 125.485px 348.74px;" id="elqfb4etf64kb" class="animable"></line><rect x="54.25" y="285.68" width="151.58" height="115.98" style="fill: rgb(255, 255, 255); stroke: rgb(38, 50, 56); stroke-linecap: round; stroke-linejoin: round; transform-origin: 130.04px 343.67px;" id="el8yxcguz2jgs" class="animable"></rect><line x1="54.25" y1="401.66" x2="205.83" y2="285.68" style="fill: none; stroke: rgb(38, 50, 56); stroke-linecap: round; stroke-linejoin: round; transform-origin: 130.04px 343.67px;" id="elxkmp68179sg" class="animable"></line><line x1="54.25" y1="285.68" x2="205.83" y2="401.66" style="fill: none; stroke: rgb(38, 50, 56); stroke-linecap: round; stroke-linejoin: round; transform-origin: 130.04px 343.67px;" id="eld9fullhe9v" class="animable"></line><path d="M325.93,145.12H178.49a17.92,17.92,0,0,1-17.92-17.92h0a17.92,17.92,0,0,1,17.92-17.93H325.93a17.92,17.92,0,0,1,17.92,17.93h0A17.92,17.92,0,0,1,325.93,145.12Z" style="fill: rgb(38, 50, 56); stroke: rgb(38, 50, 56); stroke-miterlimit: 10; transform-origin: 252.21px 127.195px;" id="el5u1iqt3qd2b" class="animable"></path><rect x="164.62" y="106.74" width="183.28" height="35.84" rx="17.92" style="fill: rgb(255, 255, 255); stroke: rgb(38, 50, 56); stroke-linecap: round; stroke-linejoin: round; transform-origin: 256.26px 124.66px;" id="elydfdf192oo" class="animable"></rect></g><g id="freepik--Character--inject-6" class="animable animator-active" style="transform-origin: 349.805px 307.64px;"><polyline points="234.49 162.26 234.49 208.04 276.49 208.04 276.49 164.26 234.49 162.26" style="fill: rgb(38, 50, 56); stroke: rgb(38, 50, 56); stroke-miterlimit: 10; transform-origin: 255.49px 185.15px;" id="el1iwyo2do4apj" class="animable"></polyline><polygon points="281.85 205.25 238.15 205.25 234.49 162.26 278.18 162.26 281.85 205.25" style="fill: rgb(24, 82, 192); stroke: rgb(38, 50, 56); stroke-miterlimit: 10; transform-origin: 258.17px 183.755px;" id="ellc8zus62lwb" class="animable"></polygon><path d="M314.84,234.79s-27.36-20.28-28.7-21.43-5-5.55-6.31-7.08-9-3.83-9-3.83-4-2.87-4.78-4-3.06.58-1.72,2.87,4.59,4.21,4.59,4.21H252.85s7.46,6.89,8.8,8.23,15.69,1.92,15.69,1.92,11.29,16.45,20.09,24.3,19.32,13.39,21.24,13,2.68-4,2.1-5.55S314.84,234.79,314.84,234.79Z" style="fill: rgb(255, 255, 255); stroke: rgb(38, 50, 56); stroke-miterlimit: 10; transform-origin: 286.905px 225.546px;" id="el5lzy7obk4a8" class="animable"></path><path d="M258.4,206.47l5.93,3.25s7.84-3.44,9.95-2.87,4.21,3.26,4.21,3.26" style="fill: none; stroke: rgb(38, 50, 56); stroke-miterlimit: 10; transform-origin: 268.445px 208.29px;" id="elwozwx45badb" class="animable"></path><path d="M344,307.11l3.93,68.63s-2.36,16.5-.27,23.31S351,424.72,351,424.72s-2.1,3.15-1.57,4.2,2.35,7.85,2.35,7.85l.79,3.67s5-2.36,6.81-2.36,5.76,2.89,5.76,2.89,4.2-7.08,3.93-9.17-2.09-4.19-2.09-5.5.52-3.93.52-6-.26-.52-.26-6.29,2.1-52.38,2.1-53.17,5.23-39,5.23-39l9.17,40.6s-1.57,22.53,0,36.94a245.6,245.6,0,0,1,1.31,27.76s-2.88,5-2.09,5.76a28.36,28.36,0,0,1,2.35,3.41s-.78,2.88-.26,4.45l.53,1.57,15.19-5.5,3.67,1.05a9.25,9.25,0,0,0,.26-4.45c-.53-2.1-1.84-4.19-1.57-5.24a43.42,43.42,0,0,0,.78-4.72c.26-2.09-.26-5-.26-7.07s2.88-56,2.62-57.36-2.88-52.13-2.88-52.13Z" style="fill: rgb(24, 82, 192); stroke: rgb(38, 50, 56); stroke-miterlimit: 10; transform-origin: 375.143px 374.62px;" id="elisxgjm84zp" class="animable"></path><line x1="376.33" y1="317.42" x2="387.97" y2="313.36" style="fill: none; stroke: rgb(38, 50, 56); stroke-miterlimit: 10; transform-origin: 382.15px 315.39px;" id="ellge20lohmvs" class="animable"></line><path d="M386.78,434s15.88-4.93,13.72-5.39-9.1,1.69-9.71,2" style="fill: none; stroke: rgb(38, 50, 56); stroke-miterlimit: 10; transform-origin: 393.741px 431.273px;" id="elw9q84iqas47" class="animable"></path><path d="M353.93,436.73s12.8-5.24,12.95-4.47-2.93,2.46-2.93,2.46" style="fill: none; stroke: rgb(38, 50, 56); stroke-miterlimit: 10; transform-origin: 360.408px 434.456px;" id="eluifhxp2yrpk" class="animable"></path><path d="M366.58,430.1s-13.27-2.62-14.19-3.55,2.47-1.39,2.47-1.39" style="fill: none; stroke: rgb(38, 50, 56); stroke-miterlimit: 10; transform-origin: 359.406px 427.63px;" id="eld9nna68p4t8" class="animable"></path><path d="M352.61,440.44s-2.07,9.09-2.69,11.25-1.54,5.55-.46,6.78,6.17,2,11.41,1.7,6.78-1.7,7.09-3.08-1.08-6.79-1.54-8.95-1.24-7.17-1.24-7.17-3.81-2.46-5.76-2.89S352.61,440.44,352.61,440.44Z" style="fill: rgb(255, 255, 255); stroke: rgb(38, 50, 56); stroke-miterlimit: 10; transform-origin: 358.483px 449.135px;" id="elpdv9gspgljo" class="animable"></path><path d="M349,456.11a3.31,3.31,0,0,0,.47,2.36c1.08,1.24,6.17,2,11.41,1.7s6.78-1.7,7.09-3.08a4.27,4.27,0,0,0,0-1.21,24,24,0,0,1-8.11,1.64A41.55,41.55,0,0,1,349,456.11Z" style="fill: none; stroke: rgb(38, 50, 56); stroke-miterlimit: 10; transform-origin: 358.481px 458.058px;" id="elpgtj0m0p1pn" class="animable"></path><path d="M385.62,442.27s-.38,11,.23,12.19,8,1.24,11.11,1.85,6.94,1.86,8.94,2.16,11.57.16,13-.61,1.24-3.24-.15-4.63-3.7-1.54-6.32-3.55-6.94-6.63-7.41-8a16.44,16.44,0,0,1-.49-3.84l-3.67-1.05Z" style="fill: rgb(255, 255, 255); stroke: rgb(38, 50, 56); stroke-miterlimit: 10; transform-origin: 402.695px 447.703px;" id="el4suzpbtomzg" class="animable"></path><path d="M418.94,453.53a13.76,13.76,0,0,1-6.54,3c-5.27,1-10.94-1.75-15.62-2.34a88.43,88.43,0,0,1-11.24-2.54,10.47,10.47,0,0,0,.31,2.8c.62,1.24,8,1.24,11.11,1.85s6.94,1.86,8.94,2.16,11.57.16,13-.61S420.09,455,418.94,453.53Z" style="fill: none; stroke: rgb(38, 50, 56); stroke-miterlimit: 10; transform-origin: 402.713px 455.128px;" id="el38qxjy87ogx" class="animable"></path><path d="M368.88,205.67s-21.24,3.25-23.92,4.4-8,8.42-8,8.42l-20,13.24-3.45,1.34s6.12,21.81,7.27,22,23.24-10,23.24-10l-1.15,42.29-1.92,23s6.32,1.15,24.69,1.72,40.75-2.29,41.33-2.29,1-44.2,1-44.2l.39-9,14.35-10.14s-12.06-28.89-13-32.14-2.11-4.79-5.17-6.32-15.5-3.82-15.5-3.82Z" style="fill: rgb(38, 50, 56); stroke: rgb(38, 50, 56); stroke-miterlimit: 10; transform-origin: 368.11px 258.163px;" id="elghyjuw9j4as" class="animable"></path><polygon points="368.79 218.24 361.89 208.69 366.94 205.47 368.79 218.24" style="fill: rgb(255, 255, 255); stroke: rgb(38, 50, 56); stroke-linecap: round; stroke-linejoin: round; transform-origin: 365.34px 211.855px;" id="el3w9rxmo49nl" class="animable"></polygon><polygon points="361.89 208.69 360.05 217.42 365.72 214.35 361.89 208.69" style="fill: rgb(255, 255, 255); stroke: rgb(38, 50, 56); stroke-linecap: round; stroke-linejoin: round; transform-origin: 362.885px 213.055px;" id="elgg1zuemjww" class="animable"></polygon><path d="M359.47,161.59s-5.11,9.77-4.66,11.27a17.5,17.5,0,0,1,.61,2.85s-6.77,7.82-5.56,9.17a19.24,19.24,0,0,0,3.3,2.7s1,8.72,1,9.32-.75,4.36.75,5.56a5.93,5.93,0,0,0,4.51,1c1.2-.15,5.11-1.35,5.11-1.35s3.31,17.43,4.21,16.08,18-16.08,18-16.08l-.6-8.27s8.86-13.22,9.16-16.07-4.05-15.33-5.56-17.28-17-5.86-22.53-5.41S357.82,158.58,359.47,161.59Z" style="fill: rgb(255, 255, 255); stroke: rgb(38, 50, 56); stroke-linecap: round; stroke-linejoin: round; transform-origin: 372.515px 186.654px;" id="elbhu2d3hb9x" class="animable"></path><path d="M372.09,198.7c1.21-1.5,2.56-18.93,3.31-20.28s4.81-2.41,6.31-1.35,1.5,8.11,0,10.51-3.31,1.66-.75,4.06a7.7,7.7,0,0,0,5.26,2.25s8.86-13.22,9.16-16.07-4.05-15.33-5.56-17.28-17-5.86-22.53-5.41-9.47,3.45-7.82,6.46a16.77,16.77,0,0,1,6.61.3c3.46.9,4.06,2.7,3.46,3.16s-5.11,2.7-4.51,4.65,7.66,6.16,7.66,6.16-1.2,7.22-1.5,9.77-3.45,5.56-3.45,5.56-8.57-5.11-11.57-4.36l-3,.75s1,8.72,1,9.32-.75,4.36.75,5.56a5.93,5.93,0,0,0,4.51,1c1.2-.15,5.11-1.35,5.11-1.35S370.89,200.21,372.09,198.7Z" style="fill: rgb(38, 50, 56); stroke: rgb(38, 50, 56); stroke-linecap: round; stroke-linejoin: round; transform-origin: 374.282px 179.326px;" id="elb7157fl4oad" class="animable"></path><path d="M361.58,174.36c-2-2.7-4.21-1.5-4.21-1.5" style="fill: none; stroke: rgb(38, 50, 56); stroke-linecap: round; stroke-linejoin: round; transform-origin: 359.475px 173.477px;" id="elk2uqq99oxt" class="animable"></path><path d="M356.17,191.34a14,14,0,0,0,5.41-1.35" style="fill: none; stroke: rgb(255, 255, 255); stroke-linecap: round; stroke-linejoin: round; transform-origin: 358.875px 190.665px;" id="eltys5ava9ype" class="animable"></path><path d="M360.37,178.57c0,1-.4,1.8-.9,1.8s-.9-.81-.9-1.8.4-1.8.9-1.8S360.37,177.57,360.37,178.57Z" style="fill: rgb(38, 50, 56); transform-origin: 359.47px 178.57px;" id="elgriiepz9rh" class="animable"></path><polygon points="370.46 211.84 368.79 218.24 373.22 214.81 370.46 211.84" style="fill: none; stroke: rgb(38, 50, 56); stroke-linecap: round; stroke-linejoin: round; transform-origin: 371.005px 215.04px;" id="eld289y3v4s6e" class="animable"></polygon><polygon points="370.46 211.84 374.64 221.07 390.49 203.13 386.66 198.95 370.46 211.84" style="fill: rgb(255, 255, 255); stroke: rgb(38, 50, 56); stroke-linecap: round; stroke-linejoin: round; transform-origin: 380.475px 210.01px;" id="elqqkj4t1z7y" class="animable"></polygon><line x1="344.01" y1="245.08" x2="340.75" y2="223.08" style="fill: none; stroke: rgb(255, 255, 255); stroke-miterlimit: 10; transform-origin: 342.38px 234.08px;" id="ele431dwzmmop" class="animable"></line><line x1="394.52" y1="228.24" x2="402.01" y2="251.28" style="fill: none; stroke: rgb(255, 255, 255); stroke-miterlimit: 10; transform-origin: 398.265px 239.76px;" id="elln9jbr2dq2" class="animable"></line><path d="M404.34,253.31s3.21,14.72,3.36,16.5,5.8,8.18,9.52,8.18,9.82-5.35,10.42-7.29-2.83-7.88-6.85-9.07S405.82,251.67,404.34,253.31Z" style="fill: rgb(255, 255, 255); stroke: rgb(38, 50, 56); stroke-miterlimit: 10; transform-origin: 416.024px 265.548px;" id="elzpfoyi604rh" class="animable"></path><polygon points="428.01 266.14 431.72 272.15 418.33 268.59 409.79 269.15 428.01 266.14" style="fill: rgb(255, 255, 255); stroke: rgb(38, 50, 56); stroke-miterlimit: 10; transform-origin: 420.755px 269.145px;" id="elv9y4rxoxcr" class="animable"></polygon><path d="M413.67,266s-4.7-1.34-3.94,0,6.51,8.66,7.94,9.24,5.53.38,7.05-.19,7.93-1.48,9.17-2,4.57-.95,4.47-1.91-3.14-1.23-5-.85-5-2.24-5-2.24Z" style="fill: rgb(255, 255, 255); stroke: rgb(38, 50, 56); stroke-miterlimit: 10; transform-origin: 424.005px 270.496px;" id="el0x6vqu25jhxb" class="animable"></path><polygon points="393.95 269.96 365.24 264.98 430.3 265.56 452.5 269.96 393.95 269.96" style="fill: rgb(163, 163, 163); stroke: rgb(38, 50, 56); stroke-miterlimit: 10; transform-origin: 408.87px 267.47px;" id="elyxhrjey3ue" class="animable"></polygon><polygon points="452.5 269.96 393.95 269.96 406.57 228.82 465.12 228.82 452.5 269.96" style="fill: rgb(163, 163, 163); stroke: rgb(38, 50, 56); stroke-miterlimit: 10; transform-origin: 429.535px 249.39px;" id="elbyn4m76r05k" class="animable"></polygon><path d="M427.6,272.46s-.35-8.29.26-8.79a1.37,1.37,0,0,1,2.27.77c.32,1.38.46,6,.67,7.43a3.23,3.23,0,0,1-.61,2.74,19.22,19.22,0,0,1-3.09-.15" style="fill: rgb(255, 255, 255); stroke: rgb(38, 50, 56); stroke-miterlimit: 10; transform-origin: 428.993px 268.967px;" id="el8hzwljgn2uu" class="animable"></path><path d="M423.58,272.94c-.11-.74.34-8.82.34-8.82s.36-1.56,1.51-1.09,1.46,3.32,1.51,3.63,1,4.9,1.12,5.85a2.13,2.13,0,0,1-1.3,2.45c-1.23.61-4,.36-4,.36" style="fill: rgb(255, 255, 255); stroke: rgb(38, 50, 56); stroke-miterlimit: 10; transform-origin: 425.436px 269.156px;" id="elcdcqmvds9ic" class="animable"></path><path d="M420.82,273.71c0-.74,1.09-9.62,1.09-9.62s.65-1.46,1.69-.78.81,3.53.8,3.85,0,5,0,5.95a2.13,2.13,0,0,1-1.74,2.16,7.9,7.9,0,0,1-2.74.21" style="fill: rgb(255, 255, 255); stroke: rgb(38, 50, 56); stroke-miterlimit: 10; transform-origin: 422.174px 269.324px;" id="el7gmhxi08cu8" class="animable"></path><path d="M418.25,272.37c0-.58.86-7.59.86-7.59s.51-1.16,1.33-.62.64,2.79.63,3,0,3.94,0,4.7a1.7,1.7,0,0,1-1.38,1.71,6.43,6.43,0,0,1-2.16.16" style="fill: rgb(255, 255, 255); stroke: rgb(38, 50, 56); stroke-miterlimit: 10; transform-origin: 419.312px 268.888px;" id="elwwkyn9gu2bg" class="animable"></path></g><g id="freepik--speech-bubble--inject-6" class="animable" style="transform-origin: 444.14px 150.785px;"><path d="M447.13,116.65a32.8,32.8,0,0,0-26.46,52.2l-12.31,16.07,20.05-8.53a32.8,32.8,0,1,0,18.72-59.74Z" style="fill: rgb(255, 255, 255); stroke: rgb(38, 50, 56); stroke-linecap: round; stroke-linejoin: round; transform-origin: 444.14px 150.785px;" id="el3x0b9sixv0v" class="animable"></path><path d="M435.92,161.06l-12.52-8.82v-5l12.52-8.82v5.52l-8,5.81,8,5.81Z" style="fill: rgb(38, 50, 56); transform-origin: 429.66px 149.74px;" id="elsmzd9el5jw" class="animable"></path><path d="M440,164.6l10-33.37h3.66l-10,33.37Z" style="fill: rgb(38, 50, 56); transform-origin: 446.83px 147.915px;" id="el79f8ia3bw2f" class="animable"></path><path d="M457.51,161.06v-5.52l8.07-5.85-8.07-5.77V138.4l12.56,8.82v5Z" style="fill: rgb(38, 50, 56); transform-origin: 463.79px 149.73px;" id="eldjpdt7kn4k5" class="animable"></path></g><defs>     <filter id="active" height="200%">         <feMorphology in="SourceAlpha" result="DILATED" operator="dilate" radius="2"></feMorphology>                <feFlood flood-color="#32DFEC" flood-opacity="1" result="PINK"></feFlood>        <feComposite in="PINK" in2="DILATED" operator="in" result="OUTLINE"></feComposite>        <feMerge>            <feMergeNode in="OUTLINE"></feMergeNode>            <feMergeNode in="SourceGraphic"></feMergeNode>        </feMerge>    </filter>    <filter id="hover" height="200%">        <feMorphology in="SourceAlpha" result="DILATED" operator="dilate" radius="2"></feMorphology>                <feFlood flood-color="#ff0000" flood-opacity="0.5" result="PINK"></feFlood>        <feComposite in="PINK" in2="DILATED" operator="in" result="OUTLINE"></feComposite>        <feMerge>            <feMergeNode in="OUTLINE"></feMergeNode>            <feMergeNode in="SourceGraphic"></feMergeNode>        </feMerge>            <feColorMatrix type="matrix" values="0   0   0   0   0                0   1   0   0   0                0   0   0   0   0                0   0   0   1   0 "></feColorMatrix>    </filter></defs></svg>